<mxfile host="Electron" modified="2023-08-08T23:50:22.407Z" agent="Mozilla/5.0 (X11; Linux x86_64) AppleWebKit/537.36 (KHTML, like Gecko) draw.io/21.3.7 Chrome/112.0.5615.204 Electron/24.5.0 Safari/537.36" etag="RxBXwg_cQjSE6wrJqsgF" version="21.3.7" type="device">
  <diagram name="Page-1" id="xbrjgfQYJhLPCNSQMc4-">
    <mxGraphModel dx="2156" dy="959" grid="0" gridSize="10" guides="1" tooltips="1" connect="1" arrows="1" fold="1" page="0" pageScale="1" pageWidth="1169" pageHeight="827" math="0" shadow="0">
      <root>
        <mxCell id="0" />
        <mxCell id="1" parent="0" />
        <mxCell id="rzJYHa8tIjdd5do5UBdR-2" value="&lt;font style=&quot;font-size: 40px;&quot;&gt;Node (JavaScript) + Express&lt;/font&gt;" style="text;html=1;strokeColor=none;fillColor=none;align=center;verticalAlign=middle;whiteSpace=wrap;rounded=0;fontSize=20;fontFamily=Architects Daughter;fontColor=#EEEEEE;fontStyle=1" vertex="1" parent="1">
          <mxGeometry x="-859" y="-235" width="622" height="30" as="geometry" />
        </mxCell>
        <mxCell id="rzJYHa8tIjdd5do5UBdR-3" value="&lt;font style=&quot;font-size: 40px;&quot;&gt;- Iniciar o&amp;nbsp; projeto = npm init -y&lt;br&gt;- adicionar o express =&amp;nbsp;npm install express&lt;br&gt;- adicionar o nodemon = npm install nodemon -D&lt;br&gt;- criar a pasta src = significa source&lt;br&gt;- criar o index.js dentro do src&lt;br&gt;- criar o servidor bÃ¡sico:&lt;br&gt;&lt;/font&gt;" style="text;html=1;strokeColor=none;fillColor=none;align=left;verticalAlign=top;whiteSpace=wrap;rounded=0;fontSize=20;fontFamily=Architects Daughter;fontColor=#EEEEEE;" vertex="1" parent="1">
          <mxGeometry x="-818" y="-192" width="935" height="294" as="geometry" />
        </mxCell>
        <mxCell id="rzJYHa8tIjdd5do5UBdR-5" value="&lt;div style=&quot;color: rgb(224, 222, 244); background-color: rgb(35, 33, 54); font-family: &amp;quot;Fira Code&amp;quot;, &amp;quot;Droid Sans Mono&amp;quot;, &amp;quot;monospace&amp;quot;, monospace; font-weight: normal; font-size: 14px; line-height: 19px;&quot;&gt;&lt;div&gt;&lt;span style=&quot;color: #3e8fb0;&quot;&gt;const&lt;/span&gt;&lt;span style=&quot;color: #e0def4;&quot;&gt; &lt;/span&gt;&lt;span style=&quot;color: #e0def4;font-style: italic;&quot;&gt;express&lt;/span&gt;&lt;span style=&quot;color: #e0def4;&quot;&gt; &lt;/span&gt;&lt;span style=&quot;color: #3e8fb0;&quot;&gt;=&lt;/span&gt;&lt;span style=&quot;color: #e0def4;&quot;&gt; &lt;/span&gt;&lt;span style=&quot;color: #eb6f92;font-style: italic;&quot;&gt;require&lt;/span&gt;&lt;span style=&quot;color: #e0def4;&quot;&gt;(&lt;/span&gt;&lt;span style=&quot;color: #f6c177;&quot;&gt;&quot;express&quot;&lt;/span&gt;&lt;span style=&quot;color: #e0def4;&quot;&gt;)&lt;/span&gt;&lt;span style=&quot;color: #908caa;&quot;&gt;;&lt;/span&gt;&lt;/div&gt;&lt;br&gt;&lt;div&gt;&lt;span style=&quot;color: #3e8fb0;&quot;&gt;const&lt;/span&gt;&lt;span style=&quot;color: #e0def4;&quot;&gt; &lt;/span&gt;&lt;span style=&quot;color: #e0def4;font-style: italic;&quot;&gt;app&lt;/span&gt;&lt;span style=&quot;color: #e0def4;&quot;&gt; &lt;/span&gt;&lt;span style=&quot;color: #3e8fb0;&quot;&gt;=&lt;/span&gt;&lt;span style=&quot;color: #e0def4;&quot;&gt; &lt;/span&gt;&lt;span style=&quot;color: #ea9a97;&quot;&gt;express&lt;/span&gt;&lt;span style=&quot;color: #e0def4;&quot;&gt;()&lt;/span&gt;&lt;span style=&quot;color: #908caa;&quot;&gt;;&lt;/span&gt;&lt;/div&gt;&lt;br&gt;&lt;div&gt;&lt;span style=&quot;color: #3e8fb0;&quot;&gt;const&lt;/span&gt;&lt;span style=&quot;color: #e0def4;&quot;&gt; &lt;/span&gt;&lt;span style=&quot;color: #e0def4;font-style: italic;&quot;&gt;PORT&lt;/span&gt;&lt;span style=&quot;color: #e0def4;&quot;&gt; &lt;/span&gt;&lt;span style=&quot;color: #3e8fb0;&quot;&gt;=&lt;/span&gt;&lt;span style=&quot;color: #e0def4;&quot;&gt; &lt;/span&gt;&lt;span style=&quot;color: #ea9a97;&quot;&gt;3333&lt;/span&gt;&lt;span style=&quot;color: #908caa;&quot;&gt;;&lt;/span&gt;&lt;/div&gt;&lt;br&gt;&lt;div&gt;&lt;span style=&quot;color: #e0def4;font-style: italic;&quot;&gt;app&lt;/span&gt;&lt;span style=&quot;color: #3e8fb0;&quot;&gt;.&lt;/span&gt;&lt;span style=&quot;color: #ea9a97;&quot;&gt;listen&lt;/span&gt;&lt;span style=&quot;color: #e0def4;&quot;&gt;(&lt;/span&gt;&lt;span style=&quot;color: #e0def4;font-style: italic;&quot;&gt;PORT&lt;/span&gt;&lt;span style=&quot;color: #908caa;&quot;&gt;,&lt;/span&gt;&lt;span style=&quot;color: #e0def4;&quot;&gt; &lt;/span&gt;&lt;span style=&quot;color: #908caa;&quot;&gt;()&lt;/span&gt;&lt;span style=&quot;color: #e0def4;&quot;&gt; &lt;/span&gt;&lt;span style=&quot;color: #3e8fb0;&quot;&gt;=&amp;gt;&lt;/span&gt;&lt;span style=&quot;color: #e0def4;&quot;&gt; &lt;/span&gt;&lt;span style=&quot;color: #908caa;&quot;&gt;{&lt;/span&gt;&lt;/div&gt;&lt;div&gt;&lt;span style=&quot;color: #e0def4;&quot;&gt;  &lt;/span&gt;&lt;span style=&quot;color: #e0def4;font-style: italic;&quot;&gt;console&lt;/span&gt;&lt;span style=&quot;color: #3e8fb0;&quot;&gt;.&lt;/span&gt;&lt;span style=&quot;color: #ea9a97;&quot;&gt;log&lt;/span&gt;&lt;span style=&quot;color: #e0def4;&quot;&gt;(&lt;/span&gt;&lt;span style=&quot;color: #f6c177;&quot;&gt;`Server is running on http://localhost:&lt;/span&gt;&lt;span style=&quot;color: #908caa;&quot;&gt;${&lt;/span&gt;&lt;span style=&quot;color: #e0def4;font-style: italic;&quot;&gt;PORT&lt;/span&gt;&lt;span style=&quot;color: #908caa;&quot;&gt;}&lt;/span&gt;&lt;span style=&quot;color: #f6c177;&quot;&gt; ðŸš€`&lt;/span&gt;&lt;span style=&quot;color: #e0def4;&quot;&gt;)&lt;/span&gt;&lt;span style=&quot;color: #908caa;&quot;&gt;;&lt;/span&gt;&lt;/div&gt;&lt;div&gt;&lt;span style=&quot;color: #908caa;&quot;&gt;}&lt;/span&gt;&lt;span style=&quot;color: #e0def4;&quot;&gt;)&lt;/span&gt;&lt;span style=&quot;color: #908caa;&quot;&gt;;&lt;/span&gt;&lt;/div&gt;&lt;br&gt;&lt;/div&gt;" style="text;html=1;strokeColor=none;fillColor=none;align=left;verticalAlign=middle;whiteSpace=wrap;rounded=0;fontSize=20;fontFamily=Architects Daughter;fontColor=#EEEEEE;" vertex="1" parent="1">
          <mxGeometry x="-789" y="102" width="567" height="196" as="geometry" />
        </mxCell>
        <mxCell id="rzJYHa8tIjdd5do5UBdR-6" value="&lt;font style=&quot;font-size: 40px;&quot;&gt;- definir o script do nodemon no package.json&lt;br&gt;&lt;/font&gt;" style="text;html=1;strokeColor=none;fillColor=none;align=left;verticalAlign=top;whiteSpace=wrap;rounded=0;fontSize=20;fontFamily=Architects Daughter;fontColor=#EEEEEE;" vertex="1" parent="1">
          <mxGeometry x="-818" y="310" width="935" height="71" as="geometry" />
        </mxCell>
        <mxCell id="rzJYHa8tIjdd5do5UBdR-9" value="&lt;div style=&quot;color: rgb(224, 222, 244); background-color: rgb(35, 33, 54); font-family: &amp;quot;Fira Code&amp;quot;, &amp;quot;Droid Sans Mono&amp;quot;, &amp;quot;monospace&amp;quot;, monospace; font-weight: normal; font-size: 14px; line-height: 19px;&quot;&gt;&lt;div&gt;&lt;span style=&quot;color: #908caa;&quot;&gt;&quot;&lt;/span&gt;&lt;span style=&quot;color: #9ccfd8;&quot;&gt;start&lt;/span&gt;&lt;span style=&quot;color: #908caa;&quot;&gt;&quot;&lt;/span&gt;&lt;span style=&quot;color: #908caa;&quot;&gt;:&lt;/span&gt;&lt;span style=&quot;color: #e0def4;&quot;&gt; &lt;/span&gt;&lt;span style=&quot;color: #f6c177;&quot;&gt;&quot;nodemon src/index.js&quot;&lt;/span&gt;&lt;/div&gt;&lt;/div&gt;" style="text;html=1;strokeColor=none;fillColor=none;align=center;verticalAlign=middle;whiteSpace=wrap;rounded=0;fontSize=20;fontFamily=Architects Daughter;fontColor=#EEEEEE;" vertex="1" parent="1">
          <mxGeometry x="-789" y="362" width="330" height="49" as="geometry" />
        </mxCell>
        <mxCell id="rzJYHa8tIjdd5do5UBdR-11" value="ProprietÃ¡rio" style="rounded=0;whiteSpace=wrap;html=1;sketch=1;hachureGap=4;jiggle=2;curveFitting=1;strokeColor=#BAC8D3;fontFamily=Architects Daughter;fontSource=https%3A%2F%2Ffonts.googleapis.com%2Fcss%3Ffamily%3DArchitects%2BDaughter;fontSize=20;fontColor=#EEEEEE;fillColor=#09555B;" vertex="1" parent="1">
          <mxGeometry x="-763" y="534" width="189" height="96" as="geometry" />
        </mxCell>
        <mxCell id="rzJYHa8tIjdd5do5UBdR-12" value="&lt;font style=&quot;font-size: 40px;&quot;&gt;- quais sÃ£o os meus recursos?&lt;br&gt;&lt;/font&gt;" style="text;html=1;strokeColor=none;fillColor=none;align=left;verticalAlign=top;whiteSpace=wrap;rounded=0;fontSize=20;fontFamily=Architects Daughter;fontColor=#EEEEEE;" vertex="1" parent="1">
          <mxGeometry x="-815" y="423" width="935" height="71" as="geometry" />
        </mxCell>
        <mxCell id="rzJYHa8tIjdd5do5UBdR-13" value="Pet" style="rounded=0;whiteSpace=wrap;html=1;sketch=1;hachureGap=4;jiggle=2;curveFitting=1;strokeColor=#BAC8D3;fontFamily=Architects Daughter;fontSource=https%3A%2F%2Ffonts.googleapis.com%2Fcss%3Ffamily%3DArchitects%2BDaughter;fontSize=20;fontColor=#EEEEEE;fillColor=#09555B;" vertex="1" parent="1">
          <mxGeometry x="-295" y="534" width="189" height="96" as="geometry" />
        </mxCell>
        <mxCell id="rzJYHa8tIjdd5do5UBdR-15" value="CRIAR" style="rounded=0;whiteSpace=wrap;html=1;sketch=1;hachureGap=4;jiggle=2;curveFitting=1;strokeColor=#006EAF;fontFamily=Architects Daughter;fontSource=https%3A%2F%2Ffonts.googleapis.com%2Fcss%3Ffamily%3DArchitects%2BDaughter;fontSize=20;fontColor=#ffffff;fillColor=#1ba1e2;" vertex="1" parent="1">
          <mxGeometry x="-869.5" y="666" width="189" height="96" as="geometry" />
        </mxCell>
        <mxCell id="rzJYHa8tIjdd5do5UBdR-16" value="LISTAR" style="rounded=0;whiteSpace=wrap;html=1;sketch=1;hachureGap=4;jiggle=2;curveFitting=1;strokeColor=#006EAF;fontFamily=Architects Daughter;fontSource=https%3A%2F%2Ffonts.googleapis.com%2Fcss%3Ffamily%3DArchitects%2BDaughter;fontSize=20;fontColor=#ffffff;fillColor=#1ba1e2;" vertex="1" parent="1">
          <mxGeometry x="-869.5" y="777" width="189" height="96" as="geometry" />
        </mxCell>
        <mxCell id="rzJYHa8tIjdd5do5UBdR-17" value="ATUALIZAR" style="rounded=0;whiteSpace=wrap;html=1;sketch=1;hachureGap=4;jiggle=2;curveFitting=1;strokeColor=#006EAF;fontFamily=Architects Daughter;fontSource=https%3A%2F%2Ffonts.googleapis.com%2Fcss%3Ffamily%3DArchitects%2BDaughter;fontSize=20;fontColor=#ffffff;fillColor=#1ba1e2;" vertex="1" parent="1">
          <mxGeometry x="-869.5" y="885" width="189" height="96" as="geometry" />
        </mxCell>
        <mxCell id="rzJYHa8tIjdd5do5UBdR-18" value="DELETAR" style="rounded=0;whiteSpace=wrap;html=1;sketch=1;hachureGap=4;jiggle=2;curveFitting=1;strokeColor=#006EAF;fontFamily=Architects Daughter;fontSource=https%3A%2F%2Ffonts.googleapis.com%2Fcss%3Ffamily%3DArchitects%2BDaughter;fontSize=20;fontColor=#ffffff;fillColor=#1ba1e2;" vertex="1" parent="1">
          <mxGeometry x="-869.5" y="993" width="189" height="96" as="geometry" />
        </mxCell>
        <mxCell id="rzJYHa8tIjdd5do5UBdR-31" style="edgeStyle=orthogonalEdgeStyle;rounded=0;sketch=1;hachureGap=4;jiggle=2;curveFitting=1;orthogonalLoop=1;jettySize=auto;html=1;strokeColor=#0B4D6A;fontFamily=Architects Daughter;fontSource=https%3A%2F%2Ffonts.googleapis.com%2Fcss%3Ffamily%3DArchitects%2BDaughter;fontSize=16;" edge="1" parent="1" source="rzJYHa8tIjdd5do5UBdR-19" target="rzJYHa8tIjdd5do5UBdR-15">
          <mxGeometry relative="1" as="geometry" />
        </mxCell>
        <mxCell id="rzJYHa8tIjdd5do5UBdR-19" value="POST" style="rounded=0;whiteSpace=wrap;html=1;sketch=1;hachureGap=4;jiggle=2;curveFitting=1;strokeColor=#006EAF;fontFamily=Architects Daughter;fontSource=https%3A%2F%2Ffonts.googleapis.com%2Fcss%3Ffamily%3DArchitects%2BDaughter;fontSize=20;fontColor=#ffffff;fillColor=#1ba1e2;" vertex="1" parent="1">
          <mxGeometry x="-645" y="666" width="189" height="96" as="geometry" />
        </mxCell>
        <mxCell id="rzJYHa8tIjdd5do5UBdR-32" style="edgeStyle=orthogonalEdgeStyle;rounded=0;sketch=1;hachureGap=4;jiggle=2;curveFitting=1;orthogonalLoop=1;jettySize=auto;html=1;strokeColor=#0B4D6A;fontFamily=Architects Daughter;fontSource=https%3A%2F%2Ffonts.googleapis.com%2Fcss%3Ffamily%3DArchitects%2BDaughter;fontSize=16;" edge="1" parent="1" source="rzJYHa8tIjdd5do5UBdR-20">
          <mxGeometry relative="1" as="geometry">
            <mxPoint x="-676.7142857142858" y="825" as="targetPoint" />
          </mxGeometry>
        </mxCell>
        <mxCell id="rzJYHa8tIjdd5do5UBdR-20" value="GET" style="rounded=0;whiteSpace=wrap;html=1;sketch=1;hachureGap=4;jiggle=2;curveFitting=1;strokeColor=#006EAF;fontFamily=Architects Daughter;fontSource=https%3A%2F%2Ffonts.googleapis.com%2Fcss%3Ffamily%3DArchitects%2BDaughter;fontSize=20;fontColor=#ffffff;fillColor=#1ba1e2;" vertex="1" parent="1">
          <mxGeometry x="-645" y="777" width="189" height="96" as="geometry" />
        </mxCell>
        <mxCell id="rzJYHa8tIjdd5do5UBdR-33" style="edgeStyle=orthogonalEdgeStyle;rounded=0;sketch=1;hachureGap=4;jiggle=2;curveFitting=1;orthogonalLoop=1;jettySize=auto;html=1;strokeColor=#0B4D6A;fontFamily=Architects Daughter;fontSource=https%3A%2F%2Ffonts.googleapis.com%2Fcss%3Ffamily%3DArchitects%2BDaughter;fontSize=16;" edge="1" parent="1" source="rzJYHa8tIjdd5do5UBdR-21" target="rzJYHa8tIjdd5do5UBdR-17">
          <mxGeometry relative="1" as="geometry" />
        </mxCell>
        <mxCell id="rzJYHa8tIjdd5do5UBdR-21" value="PUT ou PATCH" style="rounded=0;whiteSpace=wrap;html=1;sketch=1;hachureGap=4;jiggle=2;curveFitting=1;strokeColor=#006EAF;fontFamily=Architects Daughter;fontSource=https%3A%2F%2Ffonts.googleapis.com%2Fcss%3Ffamily%3DArchitects%2BDaughter;fontSize=20;fontColor=#ffffff;fillColor=#1ba1e2;" vertex="1" parent="1">
          <mxGeometry x="-645" y="885" width="189" height="96" as="geometry" />
        </mxCell>
        <mxCell id="rzJYHa8tIjdd5do5UBdR-34" style="edgeStyle=orthogonalEdgeStyle;rounded=0;sketch=1;hachureGap=4;jiggle=2;curveFitting=1;orthogonalLoop=1;jettySize=auto;html=1;entryX=1;entryY=0.5;entryDx=0;entryDy=0;strokeColor=#0B4D6A;fontFamily=Architects Daughter;fontSource=https%3A%2F%2Ffonts.googleapis.com%2Fcss%3Ffamily%3DArchitects%2BDaughter;fontSize=16;" edge="1" parent="1" source="rzJYHa8tIjdd5do5UBdR-22" target="rzJYHa8tIjdd5do5UBdR-18">
          <mxGeometry relative="1" as="geometry" />
        </mxCell>
        <mxCell id="rzJYHa8tIjdd5do5UBdR-22" value="DELETE" style="rounded=0;whiteSpace=wrap;html=1;sketch=1;hachureGap=4;jiggle=2;curveFitting=1;strokeColor=#006EAF;fontFamily=Architects Daughter;fontSource=https%3A%2F%2Ffonts.googleapis.com%2Fcss%3Ffamily%3DArchitects%2BDaughter;fontSize=20;fontColor=#ffffff;fillColor=#1ba1e2;" vertex="1" parent="1">
          <mxGeometry x="-645" y="993" width="189" height="96" as="geometry" />
        </mxCell>
        <mxCell id="rzJYHa8tIjdd5do5UBdR-23" value="CRIAR" style="rounded=0;whiteSpace=wrap;html=1;sketch=1;hachureGap=4;jiggle=2;curveFitting=1;strokeColor=#006EAF;fontFamily=Architects Daughter;fontSource=https%3A%2F%2Ffonts.googleapis.com%2Fcss%3Ffamily%3DArchitects%2BDaughter;fontSize=20;fontColor=#ffffff;fillColor=#1ba1e2;" vertex="1" parent="1">
          <mxGeometry x="-401" y="666" width="189" height="96" as="geometry" />
        </mxCell>
        <mxCell id="rzJYHa8tIjdd5do5UBdR-24" value="LISTAR" style="rounded=0;whiteSpace=wrap;html=1;sketch=1;hachureGap=4;jiggle=2;curveFitting=1;strokeColor=#006EAF;fontFamily=Architects Daughter;fontSource=https%3A%2F%2Ffonts.googleapis.com%2Fcss%3Ffamily%3DArchitects%2BDaughter;fontSize=20;fontColor=#ffffff;fillColor=#1ba1e2;" vertex="1" parent="1">
          <mxGeometry x="-401" y="774" width="189" height="96" as="geometry" />
        </mxCell>
        <mxCell id="rzJYHa8tIjdd5do5UBdR-25" value="ATUALIZAR" style="rounded=0;whiteSpace=wrap;html=1;sketch=1;hachureGap=4;jiggle=2;curveFitting=1;strokeColor=#006EAF;fontFamily=Architects Daughter;fontSource=https%3A%2F%2Ffonts.googleapis.com%2Fcss%3Ffamily%3DArchitects%2BDaughter;fontSize=20;fontColor=#ffffff;fillColor=#1ba1e2;" vertex="1" parent="1">
          <mxGeometry x="-401" y="880" width="189" height="96" as="geometry" />
        </mxCell>
        <mxCell id="rzJYHa8tIjdd5do5UBdR-26" value="DELETAR" style="rounded=0;whiteSpace=wrap;html=1;sketch=1;hachureGap=4;jiggle=2;curveFitting=1;strokeColor=#006EAF;fontFamily=Architects Daughter;fontSource=https%3A%2F%2Ffonts.googleapis.com%2Fcss%3Ffamily%3DArchitects%2BDaughter;fontSize=20;fontColor=#ffffff;fillColor=#1ba1e2;" vertex="1" parent="1">
          <mxGeometry x="-401" y="988" width="189" height="96" as="geometry" />
        </mxCell>
        <mxCell id="rzJYHa8tIjdd5do5UBdR-27" value="POST" style="rounded=0;whiteSpace=wrap;html=1;sketch=1;hachureGap=4;jiggle=2;curveFitting=1;strokeColor=#006EAF;fontFamily=Architects Daughter;fontSource=https%3A%2F%2Ffonts.googleapis.com%2Fcss%3Ffamily%3DArchitects%2BDaughter;fontSize=20;fontColor=#ffffff;fillColor=#1ba1e2;" vertex="1" parent="1">
          <mxGeometry x="-188" y="666" width="189" height="96" as="geometry" />
        </mxCell>
        <mxCell id="rzJYHa8tIjdd5do5UBdR-28" value="GET" style="rounded=0;whiteSpace=wrap;html=1;sketch=1;hachureGap=4;jiggle=2;curveFitting=1;strokeColor=#006EAF;fontFamily=Architects Daughter;fontSource=https%3A%2F%2Ffonts.googleapis.com%2Fcss%3Ffamily%3DArchitects%2BDaughter;fontSize=20;fontColor=#ffffff;fillColor=#1ba1e2;" vertex="1" parent="1">
          <mxGeometry x="-188" y="777" width="189" height="96" as="geometry" />
        </mxCell>
        <mxCell id="rzJYHa8tIjdd5do5UBdR-29" value="PUT ou PATCH" style="rounded=0;whiteSpace=wrap;html=1;sketch=1;hachureGap=4;jiggle=2;curveFitting=1;strokeColor=#006EAF;fontFamily=Architects Daughter;fontSource=https%3A%2F%2Ffonts.googleapis.com%2Fcss%3Ffamily%3DArchitects%2BDaughter;fontSize=20;fontColor=#ffffff;fillColor=#1ba1e2;" vertex="1" parent="1">
          <mxGeometry x="-188" y="885" width="189" height="96" as="geometry" />
        </mxCell>
        <mxCell id="rzJYHa8tIjdd5do5UBdR-30" value="DELETE" style="rounded=0;whiteSpace=wrap;html=1;sketch=1;hachureGap=4;jiggle=2;curveFitting=1;strokeColor=#006EAF;fontFamily=Architects Daughter;fontSource=https%3A%2F%2Ffonts.googleapis.com%2Fcss%3Ffamily%3DArchitects%2BDaughter;fontSize=20;fontColor=#ffffff;fillColor=#1ba1e2;" vertex="1" parent="1">
          <mxGeometry x="-188" y="993" width="189" height="96" as="geometry" />
        </mxCell>
        <mxCell id="rzJYHa8tIjdd5do5UBdR-36" value="" style="rounded=0;whiteSpace=wrap;html=1;sketch=1;hachureGap=4;jiggle=2;curveFitting=1;strokeColor=#BAC8D3;fontFamily=Architects Daughter;fontSource=https%3A%2F%2Ffonts.googleapis.com%2Fcss%3Ffamily%3DArchitects%2BDaughter;fontSize=20;fontColor=#EEEEEE;fillColor=#09555B;" vertex="1" parent="1">
          <mxGeometry x="-857" y="1207" width="312" height="234" as="geometry" />
        </mxCell>
        <mxCell id="rzJYHa8tIjdd5do5UBdR-37" value="&lt;font style=&quot;font-size: 40px;&quot;&gt;- o que a controller faz?&lt;br&gt;&lt;/font&gt;" style="text;html=1;strokeColor=none;fillColor=none;align=left;verticalAlign=top;whiteSpace=wrap;rounded=0;fontSize=20;fontFamily=Architects Daughter;fontColor=#EEEEEE;" vertex="1" parent="1">
          <mxGeometry x="-867" y="1114" width="935" height="71" as="geometry" />
        </mxCell>
        <mxCell id="rzJYHa8tIjdd5do5UBdR-42" style="edgeStyle=orthogonalEdgeStyle;rounded=0;sketch=1;hachureGap=4;jiggle=2;curveFitting=1;orthogonalLoop=1;jettySize=auto;html=1;strokeColor=#0B4D6A;fontFamily=Architects Daughter;fontSource=https%3A%2F%2Ffonts.googleapis.com%2Fcss%3Ffamily%3DArchitects%2BDaughter;fontSize=16;" edge="1" parent="1" source="rzJYHa8tIjdd5do5UBdR-38" target="rzJYHa8tIjdd5do5UBdR-39">
          <mxGeometry relative="1" as="geometry" />
        </mxCell>
        <mxCell id="rzJYHa8tIjdd5do5UBdR-38" value="Cliente" style="shape=umlActor;verticalLabelPosition=bottom;verticalAlign=top;html=1;outlineConnect=0;sketch=1;hachureGap=4;jiggle=2;curveFitting=1;strokeColor=#BAC8D3;fontFamily=Architects Daughter;fontSource=https%3A%2F%2Ffonts.googleapis.com%2Fcss%3Ffamily%3DArchitects%2BDaughter;fontSize=20;fontColor=#EEEEEE;fillColor=#09555B;" vertex="1" parent="1">
          <mxGeometry x="-720" y="1281" width="30" height="60" as="geometry" />
        </mxCell>
        <mxCell id="rzJYHa8tIjdd5do5UBdR-44" style="edgeStyle=orthogonalEdgeStyle;rounded=0;sketch=1;hachureGap=4;jiggle=2;curveFitting=1;orthogonalLoop=1;jettySize=auto;html=1;entryX=0;entryY=0.25;entryDx=0;entryDy=0;strokeColor=#0B4D6A;fontFamily=Architects Daughter;fontSource=https%3A%2F%2Ffonts.googleapis.com%2Fcss%3Ffamily%3DArchitects%2BDaughter;fontSize=16;" edge="1" parent="1" source="rzJYHa8tIjdd5do5UBdR-39" target="rzJYHa8tIjdd5do5UBdR-43">
          <mxGeometry relative="1" as="geometry" />
        </mxCell>
        <mxCell id="rzJYHa8tIjdd5do5UBdR-46" style="edgeStyle=orthogonalEdgeStyle;rounded=0;sketch=1;hachureGap=4;jiggle=2;curveFitting=1;orthogonalLoop=1;jettySize=auto;html=1;strokeColor=#0B4D6A;fontFamily=Architects Daughter;fontSource=https%3A%2F%2Ffonts.googleapis.com%2Fcss%3Ffamily%3DArchitects%2BDaughter;fontSize=16;" edge="1" parent="1" source="rzJYHa8tIjdd5do5UBdR-39" target="rzJYHa8tIjdd5do5UBdR-38">
          <mxGeometry relative="1" as="geometry" />
        </mxCell>
        <mxCell id="rzJYHa8tIjdd5do5UBdR-48" value="request" style="edgeLabel;html=1;align=center;verticalAlign=middle;resizable=0;points=[];fontSize=20;fontFamily=Architects Daughter;fontColor=#EEEEEE;" vertex="1" connectable="0" parent="rzJYHa8tIjdd5do5UBdR-46">
          <mxGeometry x="0.8085" y="1" relative="1" as="geometry">
            <mxPoint x="52" y="-1" as="offset" />
          </mxGeometry>
        </mxCell>
        <mxCell id="rzJYHa8tIjdd5do5UBdR-39" value="Controller" style="shape=umlActor;verticalLabelPosition=bottom;verticalAlign=top;html=1;outlineConnect=0;sketch=1;hachureGap=4;jiggle=2;curveFitting=1;strokeColor=#BAC8D3;fontFamily=Architects Daughter;fontSource=https%3A%2F%2Ffonts.googleapis.com%2Fcss%3Ffamily%3DArchitects%2BDaughter;fontSize=20;fontColor=#EEEEEE;fillColor=#09555B;" vertex="1" parent="1">
          <mxGeometry x="-476" y="1236" width="30" height="60" as="geometry" />
        </mxCell>
        <mxCell id="rzJYHa8tIjdd5do5UBdR-45" style="edgeStyle=orthogonalEdgeStyle;rounded=0;sketch=1;hachureGap=4;jiggle=2;curveFitting=1;orthogonalLoop=1;jettySize=auto;html=1;strokeColor=#0B4D6A;fontFamily=Architects Daughter;fontSource=https%3A%2F%2Ffonts.googleapis.com%2Fcss%3Ffamily%3DArchitects%2BDaughter;fontSize=16;" edge="1" parent="1" source="rzJYHa8tIjdd5do5UBdR-43" target="rzJYHa8tIjdd5do5UBdR-39">
          <mxGeometry relative="1" as="geometry" />
        </mxCell>
        <mxCell id="rzJYHa8tIjdd5do5UBdR-49" value="response" style="edgeLabel;html=1;align=center;verticalAlign=middle;resizable=0;points=[];fontSize=20;fontFamily=Architects Daughter;fontColor=#EEEEEE;" vertex="1" connectable="0" parent="rzJYHa8tIjdd5do5UBdR-45">
          <mxGeometry x="-0.6074" y="1" relative="1" as="geometry">
            <mxPoint x="12" y="-1" as="offset" />
          </mxGeometry>
        </mxCell>
        <mxCell id="rzJYHa8tIjdd5do5UBdR-43" value="Cozinha - backend" style="rounded=0;whiteSpace=wrap;html=1;sketch=1;hachureGap=4;jiggle=2;curveFitting=1;strokeColor=#BAC8D3;fontFamily=Architects Daughter;fontSource=https%3A%2F%2Ffonts.googleapis.com%2Fcss%3Ffamily%3DArchitects%2BDaughter;fontSize=20;fontColor=#EEEEEE;fillColor=#09555B;" vertex="1" parent="1">
          <mxGeometry x="-317" y="1207" width="312" height="234" as="geometry" />
        </mxCell>
        <mxCell id="rzJYHa8tIjdd5do5UBdR-47" value="&lt;font style=&quot;font-size: 40px;&quot;&gt;- adicionar a pastar controllers na src&lt;br&gt;&lt;/font&gt;" style="text;html=1;strokeColor=none;fillColor=none;align=left;verticalAlign=top;whiteSpace=wrap;rounded=0;fontSize=20;fontFamily=Architects Daughter;fontColor=#EEEEEE;" vertex="1" parent="1">
          <mxGeometry x="-869.5" y="1480" width="935" height="71" as="geometry" />
        </mxCell>
      </root>
    </mxGraphModel>
  </diagram>
</mxfile>
